<svg xmlns="http://www.w3.org/2000/svg" version="1.1" xmlns:xlink="http://www.w3.org/1999/xlink" xmlns:svgjs="http://svgjs.com/svgjs" width="1440" height="250" preserveAspectRatio="none" viewBox="0 0 1440 250">
    <g mask="url(&quot;#SvgjsMask1021&quot;)" fill="none">
        <path d="M35 250L285 0L526.5 0L276.5 250z" fill="url(#SvgjsLinearGradient1022)"></path>
        <path d="M255.60000000000002 250L505.6 0L795.1 0L545.1 250z" fill="url(#SvgjsLinearGradient1022)"></path>
        <path d="M501.20000000000005 250L751.2 0L916.2 0L666.2 250z" fill="url(#SvgjsLinearGradient1022)"></path>
        <path d="M729.8000000000001 250L979.8000000000001 0L1218.3000000000002 0L968.3000000000001 250z" fill="url(#SvgjsLinearGradient1022)"></path>
        <path d="M1400 250L1150 0L952 0L1202 250z" fill="url(#SvgjsLinearGradient1023)"></path>
        <path d="M1180.4 250L930.4000000000001 0L826.9000000000001 0L1076.9 250z" fill="url(#SvgjsLinearGradient1023)"></path>
        <path d="M923.8 250L673.8 0L346.79999999999995 0L596.8 250z" fill="url(#SvgjsLinearGradient1023)"></path>
        <path d="M679.1999999999999 250L429.19999999999993 0L184.69999999999993 0L434.69999999999993 250z" fill="url(#SvgjsLinearGradient1023)"></path>
        <path d="M1286.0659028750306 250L1440 96.06590287503064L1440 250z" fill="url(#SvgjsLinearGradient1022)"></path>
        <path d="M0 250L153.93409712496936 250L 0 96.06590287503064z" fill="url(#SvgjsLinearGradient1023)"></path>
    </g>
    <defs>
        <mask id="SvgjsMask1021">
            <rect width="1440" height="250" fill="#ffffff"></rect>
        </mask>
        <linearGradient x1="0%" y1="100%" x2="100%" y2="0%" id="SvgjsLinearGradient1022">
            <stop stop-color="rgba(184, 185, 185, 0.7)" offset="0"></stop>
            <stop stop-opacity="0" stop-color="rgba(184, 185, 185, 0.7)" offset="0.66"></stop>
        </linearGradient>
        <linearGradient x1="100%" y1="100%" x2="0%" y2="0%" id="SvgjsLinearGradient1023">
            <stop stop-color="rgba(184, 185, 185, 0.7)" offset="0"></stop>
            <stop stop-opacity="0" stop-color="rgba(184, 185, 185, 0.7)" offset="0.66"></stop>
        </linearGradient>
    </defs>
</svg>